<svg xmlns="http://www.w3.org/2000/svg" viewBox="0 0 400 300" fill="none">
  <rect width="400" height="300" rx="16" fill="#E8F5F2"/>
  <g transform="translate(200,160)" fill="#0F6E56" opacity="0.3">
    <ellipse cx="0" cy="-90" rx="30" ry="28"/>
    <path d="M-35,-55 C-35,-30 -48,-15 -55,5 C-60,20 -55,35 -50,50 L50,50 C55,35 60,20 55,5 C48,-15 35,-30 35,-55 Z"/>
    <path d="M-30,-10 L-50,20 C-55,30 -60,45 -55,55 L-40,55 L-30,35 L-15,10 Z"/>
    <path d="M30,-10 L50,20 C55,30 60,45 55,55 L40,55 L30,35 L15,10 Z"/>
    <ellipse cx="-18" cy="-65" rx="6" ry="4"/>
    <ellipse cx="18" cy="-65" rx="6" ry="4"/>
    <path d="M-10,-50 L0,-42 L10,-50" stroke="#0F6E56" stroke-width="3" fill="none"/>
    <rect x="-20" y="-35" width="40" height="12" rx="4"/>
    <path d="M-25,55 L0,80 L25,55" fill="#0F6E56"/>
  </g>
  <text x="200" y="250" text-anchor="middle" font-family="system-ui,sans-serif" font-size="14" fill="#0F6E56" opacity="0.6">Gambar Ilustrasi Sholat</text>
</svg>
